<svg width="16" height="15" viewBox="0 0 16 15" fill="none" xmlns="http://www.w3.org/2000/svg">
<path fill-rule="evenodd" clip-rule="evenodd" d="M3.05991 10.6636C3.15913 10.7632 3.23516 10.8835 3.28258 11.0158C3.33 11.1482 3.34765 11.2894 3.33426 11.4293C3.26708 12.077 3.13971 12.717 2.95381 13.3411C4.28729 13.0324 5.10173 12.6749 5.47166 12.4875C5.68149 12.3812 5.92312 12.356 6.15035 12.4168C6.80174 12.5904 7.4731 12.6778 8.14724 12.6768C11.967 12.6768 14.8386 9.99354 14.8386 6.94133C14.8386 3.89009 11.967 1.2059 8.14724 1.2059C4.32744 1.2059 1.4559 3.89009 1.4559 6.94133C1.4559 8.3446 2.0457 9.64655 3.05991 10.6636ZM2.58865 14.3964C2.36217 14.4413 2.13495 14.4824 1.90709 14.5197C1.71591 14.5503 1.57061 14.3515 1.64613 14.1737C1.73101 13.9735 1.8088 13.7704 1.87937 13.5648L1.88224 13.5552C2.1193 12.867 2.3124 12.0755 2.38313 11.3385C1.21024 10.1627 0.5 8.62373 0.5 6.94133C0.5 3.24581 3.92405 0.25 8.14724 0.25C12.3704 0.25 15.7945 3.24581 15.7945 6.94133C15.7945 10.6369 12.3704 13.6327 8.14724 13.6327C7.38983 13.6337 6.63556 13.5353 5.90373 13.3402C5.40666 13.5916 4.337 14.0494 2.58865 14.3964Z" fill="#999999"/>
<path fill-rule="evenodd" clip-rule="evenodd" d="M4.32361 4.55168C4.32361 4.42492 4.37396 4.30335 4.4636 4.21372C4.55323 4.12409 4.6748 4.07373 4.80156 4.07373H11.4929C11.6197 4.07373 11.7412 4.12409 11.8309 4.21372C11.9205 4.30335 11.9708 4.42492 11.9708 4.55168C11.9708 4.67844 11.9205 4.80001 11.8309 4.88965C11.7412 4.97928 11.6197 5.02964 11.4929 5.02964H4.80156C4.6748 5.02964 4.55323 4.97928 4.4636 4.88965C4.37396 4.80001 4.32361 4.67844 4.32361 4.55168ZM4.32361 6.94144C4.32361 6.81468 4.37396 6.69311 4.4636 6.60348C4.55323 6.51385 4.6748 6.46349 4.80156 6.46349H11.4929C11.6197 6.46349 11.7412 6.51385 11.8309 6.60348C11.9205 6.69311 11.9708 6.81468 11.9708 6.94144C11.9708 7.06821 11.9205 7.18977 11.8309 7.27941C11.7412 7.36904 11.6197 7.4194 11.4929 7.4194H4.80156C4.6748 7.4194 4.55323 7.36904 4.4636 7.27941C4.37396 7.18977 4.32361 7.06821 4.32361 6.94144ZM4.32361 9.33121C4.32361 9.20445 4.37396 9.08288 4.4636 8.99324C4.55323 8.90361 4.6748 8.85325 4.80156 8.85325H8.62518C8.75194 8.85325 8.87351 8.90361 8.96314 8.99324C9.05278 9.08288 9.10313 9.20445 9.10313 9.33121C9.10313 9.45797 9.05278 9.57954 8.96314 9.66917C8.87351 9.7588 8.75194 9.80916 8.62518 9.80916H4.80156C4.6748 9.80916 4.55323 9.7588 4.4636 9.66917C4.37396 9.57954 4.32361 9.45797 4.32361 9.33121Z" fill="#999999"/>
</svg>
